<svg id="Capa_1" data-name="Capa 1" xmlns="http://www.w3.org/2000/svg" xmlns:xlink="http://www.w3.org/1999/xlink" viewBox="0 0 50 50.04"><defs><style>.cls-1{fill:none;}.cls-2{fill:#b5332b;}.cls-3{fill:#a22d26;}.cls-4{clip-path:url(#clip-path);}.cls-5{fill:#870b16;}.cls-6{fill:#eac8ad;}.cls-7{fill:#f2d7bc;}.cls-8{fill:#eac0a7;}.cls-9{fill:#fff200;}.cls-10{fill:#f8a41d;}.cls-11{fill:#f98e1c;}.cls-12{fill:#fff;}</style><clipPath id="clip-path" transform="translate(0 0)"><circle id="SVGID" class="cls-1" cx="25" cy="25" r="25" transform="translate(-7.66 11.47) rotate(-22.5)"/></clipPath></defs><title>avatar-1</title><g id="women_6" data-name="women 6"><path class="cls-2" d="M50,25A25,25,0,1,0,25,50,25,25,0,0,0,50,25Z" transform="translate(0 0)"/><path class="cls-3" d="M50,25A25,25,0,0,0,25,0V50A25,25,0,0,0,50,25Z" transform="translate(0 0)"/><g class="cls-4"><path class="cls-5" d="M25.05,43.39H16.1A9.71,9.71,0,0,1,14,33.48c2.06-5.92,3.85-8.26,4-14.59h7Z" transform="translate(0 0)"/><path class="cls-5" d="M24.82,43.39h8.94a9.71,9.71,0,0,0,2.06-9.91c-2.06-5.92-3.85-8.26-4-14.59h-7Z" transform="translate(0 0)"/><path class="cls-5" d="M36,16.21a10.95,10.95,0,1,0-10.94,11A10.94,10.94,0,0,0,36,16.21Z" transform="translate(0 0)"/><polygon class="cls-6" points="28.71 39.65 25 50.04 21.39 39.65 21.39 31.62 28.71 31.62 28.71 39.65"/><path class="cls-7" d="M25.05,9.37c-3.56,0-9.18,2-9.18,11.49,0,5.47,2.13,8,2.91,9s4.38,3.86,6.27,3.86Z" transform="translate(0 0)"/><path class="cls-7" d="M14.1,23.12c-.16-1.52.57-2.86,1.61-3s2,1,2.18,2.48-.56,2.85-1.61,3S14.26,24.63,14.1,23.12Z" transform="translate(0 0)"/><path class="cls-8" d="M25,9.37c3.55,0,9.17,2,9.17,11.49,0,5.47-2.13,8-2.9,9S26.9,33.75,25,33.75Z" transform="translate(0 0)"/><path class="cls-8" d="M36,23.12c.16-1.52-.56-2.86-1.61-3s-2,1-2.18,2.48.57,2.85,1.61,3S35.83,24.63,36,23.12Z" transform="translate(0 0)"/><path class="cls-5" d="M24.93,7.08a3.12,3.12,0,0,0-.54,0s-6,.45-7.68,8.27a4,4,0,0,0-.33,5.54c.26-2.2,1.07-3.8,2.47-4.41,2.48-1.08,3.5-.07,6.38-2.28a5.76,5.76,0,0,0,1.91-5.33A2.64,2.64,0,0,0,24.93,7.08Z" transform="translate(0 0)"/><path class="cls-5" d="M26.76,9.25S24.59,17.32,34,20.7C36.31,13.31,32.17,8.49,26.76,9.25Z" transform="translate(0 0)"/><rect class="cls-9" x="15.58" y="24.85" width="0.83" height="0.83" transform="translate(-13.18 18.71) rotate(-45.01)"/><rect class="cls-9" x="33.81" y="24.85" width="0.83" height="0.83" transform="translate(-7.84 31.6) rotate(-45.01)"/><path class="cls-10" d="M25,50V40s-2.73-.67-3.33-2.89a7.69,7.69,0,0,1-.28-1.91s-6,2-7.31,4.1C13,42.64,12.67,50,12.67,50Z" transform="translate(0 0)"/><path class="cls-11" d="M25,50V40s2.73-.67,3.33-2.89a7.69,7.69,0,0,0,.28-1.91s6,2,7.31,4.1C37,42.64,37.33,50,37.33,50Z" transform="translate(0 0)"/><path class="cls-12" d="M25.05,30.42c1.38,0,2.51-.85,2.51-1.9h-5C22.54,29.57,23.66,30.42,25.05,30.42Z" transform="translate(0 0)"/></g></g></svg>