<svg id="Capa_1" data-name="Capa 1" xmlns="http://www.w3.org/2000/svg" xmlns:xlink="http://www.w3.org/1999/xlink" viewBox="0 0 50 50.04"><defs><style>.cls-1{fill:none;}.cls-2{fill:#5a4980;}.cls-3{fill:#534378;}.cls-4{clip-path:url(#clip-path);}.cls-5{fill:#461811;}.cls-6{fill:#eac8ad;}.cls-7{fill:#f2d7bc;}.cls-8{fill:#eac0a7;}.cls-9{fill:#fff;}.cls-10{fill:#f1f2f2;}.cls-11{fill:#e6e7e8;}</style><clipPath id="clip-path"><path class="cls-1" d="M50,25A25,25,0,1,0,25,50,25,25,0,0,0,50,25Z"/></clipPath></defs><title>avatar-2</title><g id="women_5" data-name="women 5"><path class="cls-2" d="M50,25A25,25,0,1,0,25,50,25,25,0,0,0,50,25Z"/><path class="cls-3" d="M50,25A25,25,0,0,0,25,0V50A25,25,0,0,0,50,25Z"/><g class="cls-4"><circle class="cls-5" cx="25.05" cy="16.21" r="10.94" transform="translate(-0.48 0.76) rotate(-1.72)"/><polygon class="cls-6" points="28.71 39.65 25 50.04 21.39 39.65 21.39 31.62 28.71 31.62 28.71 39.65"/><path class="cls-7" d="M25.05,9.37c-3.56,0-9.18,2-9.18,11.49,0,5.47,2.13,8,2.91,9s4.38,3.86,6.27,3.86Z"/><path class="cls-7" d="M14.1,23.12c-.15-1.52.57-2.86,1.61-3s2,1,2.18,2.48-.56,2.85-1.61,3S14.26,24.63,14.1,23.12Z"/><path class="cls-8" d="M25,9.37c3.55,0,9.17,2,9.17,11.49,0,5.47-2.13,8-2.9,9S26.9,33.75,25,33.75Z"/><path class="cls-8" d="M36,23.12c.16-1.52-.56-2.86-1.61-3s-2,1-2.18,2.48.57,2.85,1.61,3S35.83,24.63,36,23.12Z"/><path class="cls-6" d="M25,50V40s-2.73-.67-3.33-2.88a7.79,7.79,0,0,1-.28-1.92s-6,2-7.31,4.1C13,42.64,12.67,50,12.67,50Z"/><path class="cls-6" d="M25,50V40s2.73-.67,3.33-2.88a7.79,7.79,0,0,0,.28-1.92s6,2,7.31,4.1C37,42.64,37.33,50,37.33,50Z"/><path class="cls-9" d="M25.05,30.42c1.38,0,2.51-.85,2.51-1.9h-5C22.54,29.57,23.66,30.42,25.05,30.42Z"/><path class="cls-5" d="M24.53,6.64c-6.5,0-8.47,5.69-8.47,8.32-2.36,3.27.21,6.2,2,7.23V20.58c0-2.12,2-4.08,5-3.76,2.71.3,4.41-1.23,5.86-3.84C30.77,9.49,28.54,6.64,24.53,6.64Z"/><path class="cls-5" d="M28.71,11.91s1.51,6.16,5.67,8.21c.74-5.54,1.18-4.37,0-7.29s-5.67-5.08-5.67-5.08Z"/><path class="cls-10" d="M25,50V36.75l-3.61-1.51s-6,2-7.31,4.1C13,42.64,12.67,50,12.67,50Z"/><path class="cls-11" d="M25,50V36.75l3.61-1.51s6,2,7.31,4.1C37,42.64,37.33,50,37.33,50Z"/><path class="cls-5" d="M23,7.12S17.44-1.46,10.61,5.21s1.07,19-3,21c4.48-.58,5.59-6.93,5.15-12.52-.39-5,3.94-7.33,7.32-5.31C21.45,9.18,23,7.12,23,7.12Z"/><polygon class="cls-9" points="25 36.73 21.28 35.24 20.37 36.17 22.22 40.27 25 36.73"/><polygon class="cls-9" points="25 36.73 28.72 35.24 29.63 36.17 27.78 40.27 25 36.73"/></g></g></svg>