<svg id="Capa_1" data-name="Capa 1" xmlns="http://www.w3.org/2000/svg" xmlns:xlink="http://www.w3.org/1999/xlink" viewBox="0 0 50 50"><defs><style>.cls-1{fill:none;}.cls-2{fill:#f6a100;}.cls-3{fill:#ed9a00;}.cls-4{clip-path:url(#clip-path);}.cls-5{fill:#d9a78c;}.cls-6{fill:#c0d0d8;}.cls-7{fill:#a7bdc8;}.cls-8{fill:#14a89a;}.cls-9{fill:#eac0a7;}.cls-10{fill:#f2d7bc;}.cls-11{fill:#fff;}.cls-12{fill:#7f97a3;}.cls-13{fill:#8b5f3c;}</style><clipPath id="clip-path" transform="translate(0 0)"><circle class="cls-1" cx="25" cy="25" r="25" transform="translate(-7.68 11.51) rotate(-22.57)"/></clipPath></defs><title>avatar-3</title><g id="men_2" data-name="men 2"><path class="cls-2" d="M50,25A25,25,0,1,0,25,50,25,25,0,0,0,50,25Z" transform="translate(0 0)"/><path class="cls-3" d="M50,25A25,25,0,0,0,25,0V50A25,25,0,0,0,50,25Z" transform="translate(0 0)"/><g class="cls-4"><rect class="cls-5" x="21.34" y="31.3" width="7.32" height="8.03"/><path class="cls-6" d="M20.45,36.09s-7,1-8,2.09S9.71,48,9.28,50H25V36.47Z" transform="translate(0 0)"/><path class="cls-7" d="M29.55,36.09s7,1,8,2.09S40.29,48,40.72,50H25V36.47Z" transform="translate(0 0)"/><polygon class="cls-8" points="24.53 37.79 23.6 47.33 25 49.96 26.4 47.33 25.47 37.79 24.53 37.79"/><path class="cls-8" d="M26.25,37.71,25,39l-1.25-1.25L25,36.46Z" transform="translate(0 0)"/><path class="cls-9" d="M25,8.33c3.55,0,9.18,2,9.18,11.49,0,5.47-1.79,9.05-2.56,10S26.88,32.72,25,32.72Z" transform="translate(0 0)"/><path class="cls-9" d="M35.94,22.08c.16-1.51-.56-2.85-1.61-3s-2,1-2.17,2.48.56,2.86,1.61,3S35.79,23.59,35.94,22.08Z" transform="translate(0 0)"/><path class="cls-10" d="M25,8.33c-3.55,0-9.18,2-9.18,11.49,0,5.47,1.79,9.05,2.56,10s4.73,2.86,6.62,2.86Z" transform="translate(0 0)"/><path class="cls-10" d="M14.06,22.08c-.16-1.51.56-2.85,1.61-3s2,1,2.17,2.48-.56,2.86-1.61,3S14.21,23.59,14.06,22.08Z" transform="translate(0 0)"/><polygon class="cls-11" points="25 36.47 21.28 34.97 20.37 35.9 22.22 40 25 36.47"/><polygon class="cls-11" points="25 36.47 28.72 34.97 29.63 35.9 27.78 40 25 36.47"/><rect class="cls-12" x="16.95" y="45.92" width="4.64" height="1.02"/><rect class="cls-12" x="28.42" y="45.92" width="4.64" height="1.02"/><path class="cls-13" d="M17.05,22.25h.63s-.39-2.47.74-3.26v-1.6S18,17.34,18,15.47s2.23-3.21,7-3.21V6.5s-9.44,1-9.44,7.87v4.72a1.6,1.6,0,0,1,1.18.29C17.27,19.82,17.05,22.25,17.05,22.25Z" transform="translate(0 0)"/><path class="cls-13" d="M32.86,22.25h-.63s.39-2.47-.74-3.26v-1.6s.43-.05.43-1.92-2.23-3.21-7-3.21V6.5s9.44,1,9.44,7.87v4.72a1.6,1.6,0,0,0-1.18.29C32.64,19.82,32.86,22.25,32.86,22.25Z" transform="translate(0 0)"/><path class="cls-11" d="M25,28.64c1.66,0,3-.55,3-1.22H22C22,28.09,23.34,28.64,25,28.64Z" transform="translate(0 0)"/></g></g></svg>