<?xml version="1.0" encoding="utf-8"?>
<!-- Generator: Adobe Illustrator 23.0.2, SVG Export Plug-In . SVG Version: 6.00 Build 0)  -->
<svg version="1.1" id="Capa_1" xmlns="http://www.w3.org/2000/svg" xmlns:xlink="http://www.w3.org/1999/xlink" x="0px" y="0px"
	 viewBox="0 0 414.74 348.57" style="enable-background:new 0 0 414.74 348.57;" xml:space="preserve">
<style type="text/css">
	.st0{fill:#FFFFFF;}
</style>
<g>
	<path class="st0" d="M159.61,57.4c-23.38,11.85-77.76,0-85.53,60.65c0,0-5.4,42.11,34.21,39.66
		c31.73-1.97,104.19-17.14,94.08,85.53c0,0,3.7,109.75-50.54,102.67c-22.75-2.97-91.75,0-91.75,0s-52.79,9.3-48.55-84.01
		c0,0-1.91-109.1,0-145.4C13.45,79.87,22.08,16.19,107.17,5.3c0,0,29.89-6.68,51.66,0C171.28,9.12,185.41,44.32,159.61,57.4z"/>
	<path class="st0" d="M360.34,57.4c-23.38,11.85-77.76,0-85.53,60.65c0,0-5.4,42.11,34.21,39.66
		c31.73-1.97,104.19-17.14,94.08,85.53c0,0,3.7,109.75-50.54,102.67c-22.75-2.97-91.75,0-91.75,0s-52.79,9.3-48.55-84.01
		c0,0-1.91-109.1,0-145.4c1.92-36.62,10.56-100.3,95.65-111.19c0,0,29.89-6.68,51.66,0C372.01,9.12,386.14,44.32,360.34,57.4z"/>
</g>
</svg>
