<svg id="OBJECTS" xmlns="http://www.w3.org/2000/svg" xmlns:xlink="http://www.w3.org/1999/xlink" viewBox="0 0 428.38 355.44"><defs><style>.cls-1{fill:url(#Degradado_sin_nombre_20);}.cls-2{fill:url(#Degradado_sin_nombre_14);}</style><linearGradient id="Degradado_sin_nombre_20" x1="171.87" y1="179.65" x2="600.25" y2="179.65" gradientTransform="matrix(1, 0, 0, -1, 0, 358)" gradientUnits="userSpaceOnUse"><stop offset="0" stop-color="#fa731e"/><stop offset="1" stop-color="#ea2390"/></linearGradient><linearGradient id="Degradado_sin_nombre_14" x1="436.33" y1="528.81" x2="557.83" y2="-53.16" xlink:href="#Degradado_sin_nombre_20"/></defs><title>main-2</title><path class="cls-1" d="M176.58.68s-30.76,69,65,38.36,80.92,11.67,68,33c-14,23.13-32.68,37.21-31,60.08,2.19,30,46.17,31.11,83.06,50.19,89.06,46.08-11.55,7.7-45.48,29.74s-13.23,38.45,33.71,36.77c101.38-3.64,67.76,30.66,50.82,46.19s-14,51,65.77,27,49.79,34,49.79,34h84V.68Z" transform="translate(-171.87 -0.57)"/><path class="cls-2" d="M506.15.68S391.5-5.3,371.09,70c-22.24,82.09,48.89,120.68,73,101.84s25.22-44.45-12.34-61.35-33.78-69,48.34-56S571.74,172,512.24,197s-45,54.44,19,85.72,29,73.23,29,73.23h40V.68Z" transform="translate(-171.87 -0.57)"/></svg>