<?xml version="1.0" encoding="utf-8"?>
<!-- Generator: Adobe Illustrator 24.0.2, SVG Export Plug-In . SVG Version: 6.00 Build 0)  -->
<svg version="1.1" id="OBJECTS" xmlns="http://www.w3.org/2000/svg" xmlns:xlink="http://www.w3.org/1999/xlink" x="0px" y="0px"
	 viewBox="0 0 973.4 355.4" style="enable-background:new 0 0 973.4 355.4;" xml:space="preserve">
<style type="text/css">
	.st0{fill:url(#SVGID_1_);}
	.st1{fill:url(#SVGID_2_);}
</style>
<title>main-2</title>
<linearGradient id="SVGID_1_" gradientUnits="userSpaceOnUse" x1="716.8738" y1="-129.655" x2="1145.25" y2="-129.655" gradientTransform="matrix(1 0 0 1 -171.87 307.43)">
	<stop  offset="0" style="stop-color:#FA731E"/>
	<stop  offset="1" style="stop-color:#EA2390"/>
</linearGradient>
<path class="st0" d="M549.7,0.1c0,0-30.8,69,65,38.4s80.9,11.7,68,33c-14,23.1-32.7,37.2-31,60.1c2.2,30,46.2,31.1,83.1,50.2
	c89.1,46.1-11.5,7.7-45.5,29.7c-33.9,22-13.2,38.4,33.7,36.8c101.4-3.6,67.8,30.7,50.8,46.2s-14,51,65.8,27s49.8,34,49.8,34h84V0.1
	H549.7z"/>
<linearGradient id="SVGID_2_" gradientUnits="userSpaceOnUse" x1="981.3326" y1="-478.8105" x2="1102.8326" y2="103.1594" gradientTransform="matrix(1 0 0 1 -171.87 307.43)">
	<stop  offset="0" style="stop-color:#FA731E"/>
	<stop  offset="1" style="stop-color:#EA2390"/>
</linearGradient>
<path class="st1" d="M879.3,0.1c0,0-114.7-6-135.1,69.3c-22.2,82.1,48.9,120.7,73,101.8c24.1-18.8,25.2-44.4-12.3-61.3
	s-33.8-69,48.3-56s91.7,117.5,32.2,142.5s-45,54.4,19,85.7s29,73.2,29,73.2h40V0.1H879.3z"/>
</svg>
